<svg width="191" height="85" viewBox="0 0 191 85" fill="none" xmlns="http://www.w3.org/2000/svg">
<path d="M26.28 13.72C32.0933 14.2 35 16.4267 35 20.4C35 22.7733 33.9733 24.64 31.92 26C29.8667 27.3333 26.84 28 22.84 28H3.48V-1.90735e-06H22.88C26.24 -1.90735e-06 28.9067 0.693332 30.88 2.08C32.8533 3.44 33.84 5.22667 33.84 7.44C33.84 9.25333 33.16 10.68 31.8 11.72C30.44 12.76 28.6 13.4267 26.28 13.72ZM10.76 5.6V11.2H22.52C23.7467 11.2 24.72 10.96 25.44 10.48C26.1867 9.97333 26.56 9.28 26.56 8.4C26.56 7.52 26.2 6.84 25.48 6.36C24.76 5.85333 23.7733 5.6 22.52 5.6H10.76ZM22.12 22.4C24.04 22.4 25.4533 22.1867 26.36 21.76C27.2667 21.3067 27.72 20.5467 27.72 19.48C27.72 18.3867 27.28 17.6267 26.4 17.2C25.52 16.7467 24.2267 16.52 22.52 16.52H10.76V22.4H22.12ZM37.1719 5.96V-1.90735e-06H68.4119V5.96H56.4519V28H49.1719V5.96H37.1719ZM97.8931 -1.90735e-06H106.253L91.7331 17.28V28H84.4531V17.28L69.9331 -1.90735e-06H78.6131L88.2531 12.16L97.8931 -1.90735e-06ZM140.518 -1.90735e-06H153.238L153.198 28H146.238V3.8L136.678 28H126.798L117.238 3.8V28H110.238V-1.90735e-06H122.998L131.838 23.92L140.518 -1.90735e-06ZM179.358 -1.90735e-06C182.638 -1.90735e-06 185.331 0.773332 187.438 2.32C189.544 3.86667 190.598 6.17333 190.598 9.24C190.598 12.3067 189.584 14.56 187.558 16C185.531 17.4133 182.798 18.12 179.358 18.12H167.518V28H160.238V-1.90735e-06H167.518H179.358ZM178.998 12.52C180.331 12.52 181.384 12.24 182.158 11.68C182.931 11.12 183.318 10.3067 183.318 9.24C183.318 8.14667 182.931 7.33333 182.158 6.8C181.384 6.24 180.331 5.96 178.998 5.96H167.518V12.52H178.998ZM28.32 48H35.76L23.56 76H12.64L0.6 48H8.24L18.2 72.48L28.32 48ZM55.2072 48C60.6739 48 64.9672 49.2267 68.0872 51.68C71.2072 54.1333 72.7672 57.5733 72.7672 62C72.7672 66.4267 71.2072 69.8667 68.0872 72.32C64.9672 74.7733 60.6739 76 55.2072 76H39.8472V48H55.2072ZM54.4472 70.04C58.0472 70.04 60.7805 69.3333 62.6472 67.92C64.5405 66.5067 65.4872 64.5333 65.4872 62C65.4872 59.4667 64.5405 57.4933 62.6472 56.08C60.7805 54.6667 58.0472 53.96 54.4472 53.96H47.1272V70.04H54.4472ZM74.8672 53.96V48H106.107V53.96H94.1472V76H86.8672V53.96H74.8672ZM110.628 76V48H117.908V70.04H136.388V76H110.628ZM154.702 76.48H154.662L153.262 78.4C154.195 78.0267 155.142 77.84 156.102 77.84C157.329 77.84 158.422 78.1067 159.382 78.64C160.342 79.2 160.822 80.0667 160.822 81.24C160.822 82.52 160.235 83.44 159.062 84C157.915 84.5867 156.515 84.88 154.862 84.88C153.209 84.88 151.835 84.5867 150.742 84C149.675 83.44 149.035 82.64 148.822 81.6L151.782 81.48C152.102 82.1733 152.915 82.52 154.222 82.52C155.769 82.52 156.542 82.0933 156.542 81.24C156.542 80.84 156.342 80.52 155.942 80.28C155.569 80.04 155.089 79.92 154.502 79.92C153.755 79.92 152.982 80.0667 152.182 80.36L149.782 79.4L152.022 76.4C143.622 75.84 139.155 72.5733 138.622 66.6L145.502 66.4C145.715 67.7333 146.582 68.8667 148.102 69.8C149.622 70.7067 151.822 71.16 154.702 71.16C156.862 71.16 158.742 70.9333 160.342 70.48C161.942 70.0267 162.742 69.3333 162.742 68.4C162.742 67.2533 161.395 66.3867 158.702 65.8L148.382 63.44C142.809 62.16 140.022 59.6267 140.022 55.84C140.022 53.0667 141.329 50.9867 143.942 49.6C146.555 48.2133 149.835 47.52 153.782 47.52C157.995 47.52 161.462 48.32 164.182 49.92C166.929 51.4933 168.462 53.7333 168.782 56.64L161.902 56.92C161.662 55.8 160.822 54.84 159.382 54.04C157.969 53.24 156.009 52.84 153.502 52.84C151.689 52.84 150.195 53.0667 149.022 53.52C147.875 53.9733 147.302 54.6 147.302 55.4C147.302 56.52 148.595 57.3733 151.182 57.96L160.742 60.04C163.862 60.7333 166.182 61.6667 167.702 62.84C169.249 64.0133 170.022 65.6667 170.022 67.8C170.022 70.7067 168.649 72.88 165.902 74.32C163.182 75.76 159.449 76.48 154.702 76.48Z" fill="white"/>
</svg>
